<svg preserveAspectRatio="xMidYMid meet" data-bbox="66.1 66.54 227.36 227.36" viewBox="0 0 360 360" xmlns="http://www.w3.org/2000/svg" data-type="ugc" role="presentation" aria-hidden="true" aria-label="">
    <g>
        <path fill="#ffffff" d="M293.46 180.22c0 62.784-50.896 113.68-113.68 113.68-62.784 0-113.68-50.896-113.68-113.68 0-62.784 50.896-113.68 113.68-113.68 62.784 0 113.68 50.896 113.68 113.68z"></path>
        <path d="M145.97 121.29c-.81 0-1.6-.33-2.17-.9-.57-.57-.9-1.37-.9-2.17 0-.81.33-1.6.9-2.17.57-.57 1.37-.9 2.17-.9.81 0 1.6.33 2.18.9.57.57.9 1.37.9 2.17 0 .81-.33 1.6-.9 2.17-.57.57-1.37.9-2.18.9z" fill="#5bc9de"></path>
        <path d="M152.7 162.37l-39.86-10.68 2.08-7.77 39.86 10.68-2.08 7.77zm45.8 12.27l-39.86-10.68 2.08-7.77 39.85 10.68-2.07 7.77zm-5.56-54.7c5.81 2.82 10.41 16.14 8.64 40.83l-38.68-10.36c10.56-21.73 20.95-31.05 27.44-31.05.16 0 .31.01.46.02l2.14.56zm3.75-10.5c.38.66.48 1.42.28 2.16l-.75 2.79c-.9-.28-1.81-.54-2.73-.78-.92-.25-1.84-.47-2.76-.68l.75-2.79a2.828 2.828 0 012.74-2.1c.25 0 .5.03.74.1.74.18 1.36.65 1.73 1.3zm10.95 52.95c1.31-16.81-.11-30.11-3.91-38.62 20.49 9.24 35.92 26.98 42.17 48.88l-38.26-10.26zm36.66 24.52l-39.86-10.68 2.08-7.77 14.52 3.89 25.34 6.79-2.08 7.77zm-138.19-33.84c-.44 1.64.53 3.33 2.17 3.77l45.8 12.27 14.21 3.81-22.12 82.57a3.077 3.077 0 005.94 1.6l22.12-82.57 2.74.74 2.74.74-21.3 79.51c-.44 1.64.53 3.33 2.17 3.77.27.07.54.11.8.11 1.36 0 2.6-.91 2.97-2.28l21.31-79.51 14.21 3.81 45.8 12.27c.27.07.53.11.8.11 1.36 0 2.6-.91 2.97-2.28l3.68-13.72c.12-.46.14-.96.04-1.44a83.247 83.247 0 00-20.55-39.27 82.606 82.606 0 00-30.55-20.64l.86-3.21c.62-2.32.3-4.74-.9-6.82a8.926 8.926 0 00-5.46-4.19c-2.32-.62-4.74-.3-6.82.9a8.926 8.926 0 00-4.19 5.46l-.86 3.21a82.024 82.024 0 00-25.79.06 3.078 3.078 0 00-2.55 3.53 3.078 3.078 0 003.53 2.55 76.01 76.01 0 0119.69-.59c-7.55 5.47-15.42 16.28-22.69 31.5l-38.26-10.25a76.88 76.88 0 0116.22-11.99 3.072 3.072 0 001.2-4.18 3.072 3.072 0 00-4.18-1.2 83.067 83.067 0 00-21.36 16.92c-.32.36-.55.78-.67 1.23-.01.01-.01.02-.02.04l-3.7 13.66z" fill="#5bc9de"></path>
        <path fill="none" stroke="#5bc9de" stroke-width="6" stroke-linecap="round" stroke-linejoin="round" stroke-miterlimit="10" d="M180.133 78.15c56.25.074 101.79 45.733 101.717 101.983-.074 56.25-45.733 101.79-101.983 101.717-56.25-.074-101.79-45.733-101.717-101.983.074-56.25 45.733-101.79 101.983-101.717z"></path>
    </g>
</svg>