<svg preserveAspectRatio="xMidYMid meet" data-bbox="66.32 66.32 227.36 227.36" viewBox="0 0 360 360" xmlns="http://www.w3.org/2000/svg" data-type="ugc" role="presentation" aria-hidden="true">
    <g>
        <path fill="#ffffff" d="M106.14 206.43l-29 31.23 1.01 27.17 8.52 9.68h21.94l43.46-21.09 11.42-26.4-57.35-20.59z"></path>
        <path d="M118.59 269.98c-1.19-.67-2.2-.5-2.71-.36-5.83 1.67-11.75 2.5-17.13 2.3-8.16-.3-14.44-2.89-17.23-7.1-6.98-10.53-1.48-37.36 26.98-60.35l-3.07-3.8c-17.13 13.84-24.84 27.75-28.29 36.99-4.46 11.95-4.35 22.84.3 29.87 4.08 6.16 12.73 9.32 23.06 9.32 6.29 0 12.56-.41 19.27-3.29.9-.39 1.05-1.96.03-2.75l-1.21-.83z" fill="#6d6e70" stroke="#ffffff" stroke-width="16" stroke-miterlimit="10"></path>
        <path fill="#ffffff" d="M293.68 180c0 62.784-50.896 113.68-113.68 113.68-62.784 0-113.68-50.896-113.68-113.68 0-62.784 50.896-113.68 113.68-113.68 62.784 0 113.68 50.896 113.68 113.68z"></path>
        <path d="M189.36 141.88c-1.89-2.52-5.47-3.41-10.35-2.55-3.51.61-7.19 2.07-9.37 3.7-1.97 1.48-3.92 2.86-5.98 4.31-3.46 2.44-10.76 7.91-10.76 7.91-1.05.78-2.79.82-3.87.09l-33.6-22.89c-1.08-.74-2.82-.7-3.86.09l-8.41 6.31c-1.05.78-1.15 2.19-.23 3.12l27.51 27.97c.92.93.84 2.37-.17 3.2 0 0-11.95 9.84-14.53 12.14l-.55.48c-.51.45-1.85.26-2.97-.41l-11.74-7.08c-1.12-.67-2.89-.58-3.94.2l-8 6c-1.05.78-1.04 2.06.01 2.84l17.77 13.11c1.05.78 2.28 2.41 2.73 3.64l7.62 20.72c.45 1.23 1.68 1.59 2.72.8l8-6c1.05-.78 1.63-2.46 1.29-3.72l-3.67-13.85c-.33-1.26-.05-2.64.64-3.07l.74-.45c2.93-1.77 15.39-10.07 15.39-10.07 1.09-.72 2.5-.38 3.14.76l19.3 34.47c.64 1.14 2.02 1.43 3.06.65l8.41-6.31c1.05-.78 1.57-2.44 1.17-3.69l-12.62-38.75c-.4-1.24.15-2.85 1.24-3.58 0 0 5.43-3.63 8.36-5.5 3.24-2.07 6.03-3.85 8.89-6 3.84-2.84 10.89-12.92 6.63-18.59zm-77.61.75c-.92-.93-.86-2.3.11-3.03.98-.74 2.66-.73 3.74 0l28.65 19.51c1.08.74 1.13 2 .1 2.81l-5.8 4.59c-1.02.81-2.61.71-3.53-.22l-23.27-23.66zm58.31 69.53c.4 1.24-.07 2.86-1.05 3.6-.98.74-2.3.4-2.94-.74l-16.33-29.17c-.64-1.14-.29-2.69.79-3.44l6.08-4.26c1.07-.75 2.28-.35 2.68.9l10.77 33.11zm13.67-62.21c-1.28 2.63-3.22 4.95-4.47 5.89-2.68 2.01-5.26 3.66-8.53 5.74-3.38 2.16-10.34 6.86-10.34 6.86-1.08.73-1.99 1.35-2.03 1.37s-.93.65-2 1.4l-11.28 7.9c-1.07.75-1.96 1.37-1.97 1.38s-.91.61-2 1.34c0 0-14.61 9.81-17.71 11.68-1.46.88-1.98 1.22-1.98 1.22-1.1.71-2.37 1.56-2.84 1.87-.46.32-.57 1.61-.24 2.88l3.73 14.07c.33 1.26.07 2.7-.6 3.2-.66.5-1.57-.1-2.02-1.33l-5.52-15.03c-.45-1.23-1.68-2.86-2.73-3.64l-12.88-9.5c-1.05-.78-1.37-1.82-.71-2.31.66-.5 2.12-.35 3.24.32l11.9 7.17c1.12.67 2.39.94 2.83.59s1.61-1.33 2.61-2.17c0 0 .24-.2 1.42-1.25 2.75-2.44 16.82-13.95 16.82-13.95l1.84-1.51s.84-.66 1.86-1.48l10.94-8.67c1.02-.81 1.86-1.48 1.86-1.48l1.9-1.43s8.45-6.38 12.2-9.03c2.09-1.48 4.07-2.88 6.11-4.41 1.23-.92 3.98-2.12 6.88-2.62 2.98-.52 4.45-.01 4.7.31.24.37.33 1.93-.99 4.62z" fill="#5bc9de"></path>
        <path d="M189.36 141.88c-1.89-2.52-5.47-3.41-10.35-2.55-3.51.61-7.19 2.07-9.37 3.7-1.97 1.48-3.92 2.86-5.98 4.31-3.46 2.44-10.76 7.91-10.76 7.91-1.05.78-2.79.82-3.87.09l-33.6-22.89c-1.08-.74-2.82-.7-3.86.09l-8.41 6.31c-1.05.78-1.15 2.19-.23 3.12l27.51 27.97c.92.93.84 2.37-.17 3.2 0 0-11.95 9.84-14.53 12.14l-.55.48c-.51.45-1.85.26-2.97-.41l-11.74-7.08c-1.12-.67-2.89-.58-3.94.2l-8 6c-1.05.78-1.04 2.06.01 2.84l17.77 13.11c1.05.78 2.28 2.41 2.73 3.64l7.62 20.72c.45 1.23 1.68 1.59 2.72.8l8-6c1.05-.78 1.63-2.46 1.29-3.72l-3.67-13.85c-.33-1.26-.05-2.64.64-3.07l.74-.45c2.93-1.77 15.39-10.07 15.39-10.07 1.09-.72 2.5-.38 3.14.76l19.3 34.47c.64 1.14 2.02 1.43 3.06.65l8.41-6.31c1.05-.78 1.57-2.44 1.17-3.69l-12.62-38.75c-.4-1.24.15-2.85 1.24-3.58 0 0 5.43-3.63 8.36-5.5 3.24-2.07 6.03-3.85 8.89-6 3.84-2.84 10.89-12.92 6.63-18.59zm-77.61.75c-.92-.93-.86-2.3.11-3.03.98-.74 2.66-.73 3.74 0l28.65 19.51c1.08.74 1.13 2 .1 2.81l-5.8 4.59c-1.02.81-2.61.71-3.53-.22l-23.27-23.66zm58.31 69.53c.4 1.24-.07 2.86-1.05 3.6-.98.74-2.3.4-2.94-.74l-16.33-29.17c-.64-1.14-.29-2.69.79-3.44l6.08-4.26c1.07-.75 2.28-.35 2.68.9l10.77 33.11zm13.67-62.21c-1.28 2.63-3.22 4.95-4.47 5.89-2.68 2.01-5.26 3.66-8.53 5.74-3.38 2.16-10.34 6.86-10.34 6.86-1.08.73-1.99 1.35-2.03 1.37s-.93.65-2 1.4l-11.28 7.9c-1.07.75-1.96 1.37-1.97 1.38s-.91.61-2 1.34c0 0-14.61 9.81-17.71 11.68-1.46.88-1.98 1.22-1.98 1.22-1.1.71-2.37 1.56-2.84 1.87-.46.32-.57 1.61-.24 2.88l3.73 14.07c.33 1.26.07 2.7-.6 3.2-.66.5-1.57-.1-2.02-1.33l-5.52-15.03c-.45-1.23-1.68-2.86-2.73-3.64l-12.88-9.5c-1.05-.78-1.37-1.82-.71-2.31.66-.5 2.12-.35 3.24.32l11.9 7.17c1.12.67 2.39.94 2.83.59s1.61-1.33 2.61-2.17c0 0 .24-.2 1.42-1.25 2.75-2.44 16.82-13.95 16.82-13.95l1.84-1.51s.84-.66 1.86-1.48l10.94-8.67c1.02-.81 1.86-1.48 1.86-1.48l1.9-1.43s8.45-6.38 12.2-9.03c2.09-1.48 4.07-2.88 6.11-4.41 1.23-.92 3.98-2.12 6.88-2.62 2.98-.52 4.45-.01 4.7.31.24.37.33 1.93-.99 4.62z" fill="none" stroke="#5bc9de" stroke-width=".75" stroke-miterlimit="10"></path>
        <path d="M118.59 269.98c-1.19-.67-2.2-.5-2.71-.36-5.83 1.67-11.75 2.5-17.13 2.3-8.16-.3-14.44-2.89-17.23-7.1-6.98-10.53-1.48-37.36 26.98-60.35l-3.07-3.8c-17.13 13.84-24.84 27.75-28.29 36.99-4.46 11.95-4.35 22.84.3 29.87 4.08 6.16 12.73 9.32 23.06 9.32 6.29 0 12.56-.41 19.27-3.29.9-.39 1.05-1.96.03-2.75l-1.21-.83z" fill="#5bc9de" stroke-width="2" stroke="#5bc9de" stroke-miterlimit="10"></path>
        <path d="M86.67 220.84c-5.48-12.5-8.52-26.31-8.52-40.84 0-56.25 45.6-101.85 101.85-101.85S281.85 123.75 281.85 180 236.25 281.85 180 281.85c-35.68 0-67.07-18.34-85.26-46.11" fill="none" stroke-width="6" stroke-linecap="round" stroke-linejoin="round" stroke="#5bc9de" stroke-miterlimit="10"></path>
    </g>
</svg>