<svg preserveAspectRatio="xMidYMid meet" data-bbox="66.32 66.32 227.36 227.36" viewBox="0 0 360 360" xmlns="http://www.w3.org/2000/svg" data-type="ugc" role="presentation" aria-hidden="true" aria-label="">
    <g>
        <path fill="#ffffff" d="M293.68 180c0 62.784-50.896 113.68-113.68 113.68-62.784 0-113.68-50.896-113.68-113.68 0-62.784 50.896-113.68 113.68-113.68 62.784 0 113.68 50.896 113.68 113.68z"></path>
        <path fill="none" stroke="#5bc9de" stroke-width="6" stroke-linecap="round" stroke-linejoin="round" stroke-miterlimit="10" d="M281.85 180c0 56.25-45.6 101.85-101.85 101.85-56.25 0-101.85-45.6-101.85-101.85 0-56.25 45.6-101.85 101.85-101.85 56.25 0 101.85 45.6 101.85 101.85z"></path>
        <path d="M227.73 113.35l-.39-.92s0-.01-.01-.01l-.07-.11-.47-.71c-.01-.02-.03-.04-.04-.06a.443.443 0 01-.11-.2c-.02-.08-.04-.16-.06-.23l-.12-.47c-.07-.25-.13-.51-.2-.76-.04-.15-.03-.31-.02-.48 0-.05.01-.09.01-.14l.01-.26c.02-.32.04-.64.05-.96v-.02h-87.29c-.01.52-.01 1.19.05 1.49l.08 2c.04.2.21 1.03.26 1.21l.18.74c.02.08.05.16.07.25l.06.2c.03.09.03.19.04.29 0 .05.01.1.01.14.03.27 0 .56-.02.75-.01.09-.03.18-.04.27-.03.21-.06.43-.12.64-.1.33-.2.62-.31.92-.07.17-.17.34-.26.51-.04.08-.09.15-.13.23l-.12.21c-.1.17-.21.35-.28.54-.12.31-.21.63-.29.93-.14.53-.2 1.1-.16 1.72.02.31.14.58.24.82.1.25.24.48.42.71.14.18.31.35.48.51.24.24.47.47.63.75.28.52.28 1.13.26 1.7-.02.5-.12 1.01-.22 1.5l-.05.24c-.05.25-.13.49-.2.73-.09.27-.18.56-.22.85l-.03.21c-.03.2-.07.4-.07.6 0 .22-.01.44-.01.66 0 .16 0 .33-.01.49-.01.53-.06.96-.16 1.35l-.55 2.21c-.04.18-.08.38-.1.6 0 .03-.01.05-.01.08-.01.09-.02.19-.02.29l.03.48c.01.09.01.19.01.29.01.21.02.43.05.63l.13.72c.03.17.06.35.09.53.07.43.14.87.25 1.29l.03.12c.02.09.04.19.08.27.06.11.11.22.16.34l.2.43c.09.18.17.36.26.54.04.08.09.16.14.24l.28.45c.1.15.19.31.29.46l1.18 1.91c.2.33.37.69.54 1.03l.11.23c.08.17.13.37.18.56.02.08.04.17.07.25.08.26.13.49.14.72.01.28.03.6.02.92-.01.31-.03.61-.06.9a15 15 0 01-.1.78c-.01.09-.03.18-.04.27-.03.21-.06.43-.12.63-.03.09-.05.17-.08.26-.06.19-.11.39-.19.56l-.39.9-.12.27c-.09.21-.19.43-.28.64-.08.19-.14.4-.19.6-.01.05-.03.11-.04.16-.01.05-.01.11-.01.16v.3c0 .11.01.21.02.31.01.05.01.1.01.16.01.13.05.27.08.4.01.05.03.1.04.14.08.35.17.71.26 1.06.09.39.19.78.28 1.18.27 1.1.18 2.28.11 3.31-.02.31-.05.54-.1.78-.01.05-.02.1-.03.16-.02.11-.03.22-.07.32s-.08.19-.13.29c-.02.05-.05.1-.07.15-.05.11-.13.18-.22.26l-.03.02c-.04.03-.07.07-.1.1-.07.07-.14.14-.21.19l-.08.06c-.2.14-.4.29-.59.47-.26.24-.47.49-.64.7-.07.08-.12.18-.17.27-.01.03-.03.05-.04.08-.08.15-.13.27-.15.37-.06.29-.08.55-.1.86-.01.09-.01.19-.01.28-.01.2-.01.41-.04.61l-.03.17c-.06.38-.12.74-.21 1.11-.1.4-.2.8-.29 1.2l-.23.92-.42 1.73-.15.61c-.03.11-.05.21-.08.32l-.07.3c-.03.14-.1.27-.16.4-.02.03-.03.07-.05.1l-.08.17c-.05.11-.11.23-.16.34-.05.1-.06.19-.08.29l-.01.06c-.03.12-.02.24-.01.36v.09c0 .11.05.22.09.32.02.04.03.07.04.11.07.2.18.39.35.63.11.16.23.31.35.47l.03.05c.05.07.1.13.14.21.22.46.33.99.34 1.56v.49c0 .45-.01.92.02 1.37.01.08.01.16.01.23.01.18.02.37.05.55l.15.86c.07.42.15.85.22 1.27l.12.7c.03.18.09.37.14.55.03.09.05.18.08.27.03.1.06.2.1.29.02.05.03.09.05.14.04.11.09.2.15.29l.07.11c.15.22.28.43.36.69.08.25.12.52.14.87.03.52-.02 1.09-.17 1.77-.02.12-.05.24-.08.36l-.03.15c-.02.09-.02.18-.02.27v.12c-.01.26.08.43.19.63l.63 1.16c.1.18.2.36.23.54l.09.5c.02.1.02.2.02.31v.13c.01.23.01.48 0 .79l-.01.29c0 .11-.01.23-.01.34v.11c0 .07 0 .15-.01.22-.01.1-.03.2-.04.3l-.03.17c0 .03-.01.06-.01.09-.01.07-.02.15-.04.21-.12.39-.25.78-.37 1.17l-.41 1.28c-.35 1.09-.69 2.18-1.03 3.26-.06.2-.13.4-.19.6l-.05.16c-.02.07-.05.14-.06.22-.05.33-.09.64-.12.95-.03.27-.01.52 0 .8 0 .1.01.19.01.29.01.2.01.41.04.62l.03.23.03.28.01.06c.01.09.02.18.05.27.02.06.05.13.07.19.08.22.16.44.26.66l.24.48c.01.03.04.04.07.04.05 0 .13-.03.31-.14.02-.01.03-.02.04-.02.1-.05.19-.11.29-.19a.55.55 0 00.09-.07c.08-.06.18-.12.24-.21.08-.11.17-.23.25-.36.08-.12.12-.24.16-.37l.02-.05c.02-.08.03-.16.04-.24 0-.03.01-.06.01-.08l.02-.18.06-.44c.04-.26.11-.49.22-.7l.01-.02c.07-.14.13-.25.24-.35s.21-.18.35-.26c.19-.11.43-.17.77-.18.25-.02.49.04.75.1l.18.04c.09.02.19.04.27.08.03.02.06.03.1.05.1.05.21.09.28.17.03.03.05.06.08.08.08.08.16.16.21.25.02.04.05.08.08.12.06.09.12.18.15.27l.21.7.01.05c.12.4.25.81.37 1.22l.11.37c.02.08.07.14.11.2l.02.03c.02.03.04.07.07.11.06.1.12.21.21.27.12.09.22.17.32.27.04.04.08.07.12.11.08.07.16.15.23.23.07.09.13.19.19.28.03.04.05.08.08.13l.02.04c.06.09.12.17.12.28 0 .1 0 .2.01.29v.18c.01.32.01.64.02.96.07 2.23.11 4.49.15 6.68l.06 2.97c.08 3.56.16 7.12.25 10.6.07 2.73.13 4.99.19 7.1.1 3.48.2 6.97.31 10.36.05 1.66.11 3.32.16 4.97 0 .1.01.19.01.29.02.33.03.68 0 1.02-.01.09-.01.18-.02.27-.01.19-.02.39-.05.57l-.35 1.95c0 .02-.01.04-.01.06-.01.05-.03.11-.02.16v.02c.16.4.31.79.47 1.19.29.72.57 1.44.86 2.15h37.61c-.02-.11-.05-.21-.07-.32l-.05-.21c-.03-.16-.07-.31-.1-.47a.31.31 0 00-.07-.17l-.28-.34c-.13-.16-.26-.32-.4-.48l-.05-.06c-.08-.1-.17-.21-.28-.31l-1.63-1.43c-.07-.06-.14-.13-.21-.19l-.09-.08c-.01-.01-.03-.02-.04-.04-.03-.03-.07-.06-.09-.09-.05-.07-.1-.14-.15-.22-.11-.15-.21-.3-.3-.45-.03-.06-.07-.13-.11-.19-.09-.16-.19-.33-.24-.51-.02-.05-.03-.1-.05-.16-.07-.21-.13-.4-.16-.61-.01-.09-.03-.17-.05-.26-.04-.19-.07-.38-.07-.56 0-.3-.01-.6-.01-.91v-.08c0-.19.07-.39.13-.59.02-.06.04-.13.06-.19.06-.19.16-.38.25-.57l.09-.18c.08-.17.15-.36.22-.54.03-.09.06-.18.1-.27.05-.12.06-.26.06-.38 0-.04 0-.08.01-.11l.15-1.59.05-.54c.01-.15.05-.28.09-.43l.08-.32c.03-.12.06-.24.1-.36l.01-.05c.02-.1.04-.19.12-.23.27-.16.54-.31.82-.47.06-.04.14-.06.22-.09.03-.01.07-.02.1-.04l.58-.22c.02-.01.03-.01.05-.02.07-.02.16-.05.2-.13.04-.11.09-.21.13-.32l.06-.16c.01-.03.03-.07.04-.1.06-.15.13-.3.13-.47.01-.36.03-.73.04-1.09.01-.36.03-.73.04-1.1v-.19c0-.13 0-.26.02-.38l.11-.53c.14-.7.29-1.41.43-2.11l.19-.94c.03-.15.03-.31.04-.46 0-.06 0-.13.01-.19l.03-.6c0-.02 0-.05.01-.07.01-.06.01-.12 0-.18l-.07-.31c-.05-.21-.09-.42-.14-.63-.13-.57-.22-1.05-.18-1.56.06-.7.11-1.4.17-2.1.01-.14.02-.29.04-.44v-.04c0-.08.01-.16.06-.21.06-.08.13-.16.2-.23.04-.04.07-.08.11-.12.12-.14.19-.26.21-.35l.06-.25c.01-.06-.01-.13-.02-.19-.01-.02-.01-.04-.01-.06a.698.698 0 00-.08-.2c-.03-.04-.06-.07-.09-.1s-.06-.06-.08-.1c-.1-.22-.08-.49-.05-.76.01-.08.01-.15.02-.23.01-.22.09-.45.16-.66.02-.06.04-.12.06-.19.03-.08.08-.17.13-.25.01-.02.03-.05.04-.07.03-.04.05-.09.08-.14.05-.09.1-.19.16-.26l.08-.11c.08-.09.15-.19.23-.28.02-.02.03-.04.05-.06.05-.06.11-.12.14-.2l.19-.43c.08-.2.17-.39.26-.59.01-.02.02-.03.02-.05.02-.05.05-.1.05-.17.01-.16.01-.32.02-.48l.03-.63c0-.03 0-.05.01-.08.01-.08.01-.15.01-.23-.07-.62-.13-1.23-.2-1.85l-.02-.15c-.03-.28-.06-.53-.06-.79v-10.98c0-.17-.01-.34.02-.51.03-.2.05-.41.08-.61.03-.19.05-.38.08-.58.01-.05.01-.11.02-.16.02-.19.04-.37.12-.54l.27-.56.06-.12c.04-.09.08-.18.13-.25.1-.14.23-.27.36-.39l.18-.18.18-.19c.24-.25.47-.49.7-.74.14-.14.25-.27.36-.46.18-.32.35-.64.53-.95.04-.06.05-.14.06-.22.01-.03.01-.06.02-.08.05-.21.11-.42.17-.63l.02-.06c.05-.18.09-.34.11-.52.05-.37.09-.73.13-1.1.02-.17.05-.35.07-.52.05-.39.11-.79.13-1.18l.02-.54c.02-.56.05-1.12.07-1.69.01-.21.1-.41.18-.6.03-.06.05-.11.07-.17.04-.1.07-.19.15-.26l.36-.32.76-.67.1-.09c.05-.05.09-.1.12-.16.01-.02.02-.03.03-.05l.12-.19.23-.35c.22-.33.52-.62.8-.89.1-.09.19-.18.28-.27l.65-.65c.31-.3.61-.61.91-.91.05-.05.06-.08.09-.13l.11-.25c.04-.1.09-.2.13-.3.1-.23.2-.46.27-.73l.28-1.06c.05-.2.08-.41.11-.61.01-.1.03-.19.04-.29l.03-.19c.03-.18.06-.36.07-.54.01-.4.03-.8.04-1.2.01-.41.09-.83.17-1.23.03-.16.06-.32.09-.47.01-.06.04-.13.08-.19.01-.03.03-.05.04-.08.05-.11.1-.21.15-.32.04-.08.08-.17.12-.25s.07-.16.1-.24c.07-.17.14-.34.24-.49.75-1.17 1.5-2.34 2.24-3.51l.8-1.26c.02-.02.11-.35.05-.41l-.07-.08c-.06-.08-.13-.16-.21-.23l-.13-.13c-.09-.08-.17-.17-.26-.25-.07-.07-.11-.18-.15-.3-.02-.04-.03-.08-.05-.12-.01-.02-.02-.05-.03-.07-.05-.11-.1-.21-.07-.32l.12-.51c.01-.06.03-.13.04-.2.03-.16.06-.33.13-.47.17-.35.35-.7.52-1.05l.78-1.58c.19-.38.37-.75.56-1.12.05-.11.09-.21.12-.32l.01-.03.18-.61c.05-.19.11-.38.16-.57.02-.08.05-.17.08-.26.05-.17.11-.34.14-.52.03-.16.03-.33.04-.5 0-.08 0-.16.01-.23l.04-.55c.02-.25.03-.5.05-.75 0-.06.01-.13.02-.2.01-.14.03-.28.02-.41l-.15-3.46-.03-.58c-.02-.5-.05-1-.07-1.51l-.02-.39c-.01-.28.01-.57.03-.85.01-.11.02-.21.02-.31.04-.68.08-1.36.13-2.03l.02-.3c.01-.15.03-.26.08-.38.08-.2.16-.39.23-.59l.7-1.75c.02-.06.07-.1.12-.14l1.61-1.39c.1-.08.24-.11.38-.13.04-.01.08-.01.12-.02l2.06-.42c.11-.02.26-.01.41 0 .06.01.11.01.16.01l.31.01c.31.01.62.03.93.05.06 0 .12.01.18.02.15.02.32.03.44.01.33-.06.67-.11 1-.17.08-.01.14-.07.2-.12.02-.02.04-.03.06-.05l.48-.35c.14-.1.22-.23.32-.36l.23-.33.5-.71c.11-.16.22-.32.33-.47l.18-.25c.1-.14.24-.27.38-.4.06-.05.12-.11.18-.16.24-.24.51-.41.8-.6l.17-.11 1.99-1.32.53-.35.71-.47c.04-.03.08-.04.13-.06.02-.01.05-.02.07-.03.18-.08.36-.15.53-.23l.21-.09c.06-.03.12-.05.19-.08.04-.02.06-.05.08-.08.05-.08.11-.16.16-.24.25-.38.45-.79.65-1.2.07-.14.13-.27.2-.41.06-.12.17-.21.28-.3.03-.02.06-.05.09-.07.29-.26.58-.51.87-.77.03-.03.06-.06.1-.08.11-.09.22-.18.3-.3l.09-.13c.18-.25.35-.51.53-.76.01-.01.02-.02.03-.04.04-.05.08-.1.08-.18v-.55c0-.26 0-.5-.05-.76-.03-.21-.07-.42-.1-.63 0-.03-.01-.06-.02-.1a.923.923 0 01-.03-.28c.03-.21.08-.42.13-.62.02-.1.05-.2.07-.3l.06-.28.02-.08c.02-.1.13-.17.23-.23.03-.02.06-.04.08-.05.02-.01.04-.03.06-.05.09-.07.17-.13.27-.13h0l.5.02c.09 0 .19-.02.28-.04.04-.01.08-.02.13-.03.11-.02.17-.15.23-.26.01-.03.03-.06.04-.07l.06-.09c.02-.04.04-.07.07-.11.03-.05.02-.1.02-.14v-.03l-.02-.21-.01-.11c0-.04 0-.08-.02-.13-.03-.06-.05-.12-.08-.18-.09-.19-.17-.39-.29-.57-.06-.09-.12-.19-.18-.28-.12-.18-.25-.37-.34-.56-.05-.1-.09-.21-.13-.31-.02-.05-.03-.09-.05-.14l-.42-1.05c-.29-.73-.58-1.45-.88-2.17l-.01-.02c-.05-.13-.11-.25-.14-.39l-.06-.29c-.04-.2-.08-.41-.14-.6l-.1-.33-.21-.69c-.06-.2-.2-.37-.33-.54l-.12-.15c-.08-.11-.16-.21-.23-.32l-.02-.03c-.04-.05-.07-.13-.1-.2-.01-.03-.03-.06-.04-.09-.08-.16-.15-.33-.23-.49l-.04-.08c-.01-.03-.03-.06-.04-.09-.05-.09-.11-.2-.1-.29 0-.19.02-.38.04-.57l.03-.3.03-.36.02-.22v-.08c0-.07 0-.15.03-.2l.33-.77.42-.96.1-.24c.06-.14.12-.28.19-.43.03-.08.09-.16.14-.24l.06-.09.18-.27c.06-.09.12-.18.18-.28.13-.2.26-.41.39-.61l.97-1.51c.68-1.05 1.37-2.11 2.06-3.17.09-.13.11-.22.14-.38l.04-.19c.03-.13.06-.26.08-.4l.12-.56c0-.01.01-.03.01-.04-.04-.06-.02-.13-.05-.2z" fill="none" stroke="#5bc9de" stroke-width="6" stroke-linecap="round" stroke-linejoin="round" stroke-miterlimit="10"></path>
        <path d="M192.97 134.28c-8.42-7.12-16.84 2-16.84 2s-8.42-9.12-16.84-2c-8.42 7.12 2.63 23.77 16.84 32.48 14.21-8.72 25.26-25.37 16.84-32.48z" fill="none" stroke="#5bc9de" stroke-width="6" stroke-linecap="round" stroke-linejoin="round" stroke-miterlimit="10"></path>
    </g>
</svg>